<?xml version="1.0" encoding="utf-8"?>
<!-- Generator: Adobe Illustrator 22.0.1, SVG Export Plug-In . SVG Version: 6.00 Build 0)  -->
<svg version="1.1" xmlns="http://www.w3.org/2000/svg" xmlns:xlink="http://www.w3.org/1999/xlink" x="0px" y="0px"
	 viewBox="0 0 231.3 101.9" style="enable-background:new 0 0 231.3 101.9;" xml:space="preserve">
<style type="text/css">
	.st0{fill:#FFFFFF;}
</style>
<g id="Layer_1">
</g>
<g id="Layer_3">
	<path class="st0" d="M104.3,13.2c1.2,0.4,2.3,0.9,3.4,1.4l1.7,0.7c0.4,0.2,0.7,0.4,1.1,0.6c1.1-0.7,2.2-1.4,3.4-2.1
		c-0.5-0.2-0.9-0.4-1.4-0.7c-0.6-0.3-1.2-0.5-1.8-0.8l-1.8-0.7c-2.4-1-4.9-1.7-7.4-2.4c-5-1.3-10.1-1.9-15.2-2L86.3,8
		c5,1.1,9.8,2.3,14.5,4C102,12.3,103.2,12.8,104.3,13.2z"/>
	<path class="st0" d="M103.6,30.3c3.3-3.9,7.2-7.3,11.5-10.3c4.3-2.9,9-5.3,13.9-7c1.2-0.5,2.5-0.8,3.7-1.2c0.6-0.2,1.2-0.4,1.9-0.5
		l1.9-0.4c2.5-0.7,5.1-1,7.6-1.3c5.1-0.6,10.3-0.5,15.4,0.1l0,0.7c-5.1,0.5-10,0.9-14.9,1.9c-1.2,0.2-2.4,0.6-3.6,0.8
		c-1.2,0.2-2.4,0.6-3.6,0.9l-1.8,0.5c-0.6,0.2-1.2,0.4-1.8,0.6c-1.2,0.4-2.4,0.7-3.5,1.2c-4.6,1.8-9.1,3.9-13.4,6.3
		c-1.1,0.6-2.2,1.2-3.2,1.9c-0.5,0.3-1.1,0.6-1.6,1l-1.6,1c-2.1,1.4-4.2,2.8-6.3,4.3L103.6,30.3z"/>
	<g>
		<path class="st0" d="M5.2,50.9h2.9v7.2H16v-7.2h2.9v18.2H16v-8.4H8.1v8.4H5.2V50.9z"/>
		<path class="st0" d="M27.1,50.9H30v18.2h-2.9V50.9z"/>
		<path class="st0" d="M38.2,50.9h5.4c1.5,0,2.9,0.3,4.2,1c1.3,0.7,2.3,1.7,3.1,3.1c0.8,1.4,1.2,3,1.2,5c0,2-0.4,3.6-1.2,5
			c-0.8,1.4-1.8,2.4-3.1,3.1c-1.3,0.7-2.7,1-4.2,1h-5.4V50.9z M42.9,66.5c1.8,0,3.2-0.5,4.4-1.5c1.2-1,1.8-2.6,1.8-4.9
			c0-2.3-0.6-3.9-1.8-4.9c-1.2-1-2.7-1.5-4.4-1.5h-1.8v12.8H42.9z"/>
		<path class="st0" d="M59.3,50.9h5.4c1.5,0,2.9,0.3,4.2,1c1.3,0.7,2.3,1.7,3.1,3.1c0.8,1.4,1.2,3,1.2,5c0,2-0.4,3.6-1.2,5
			c-0.8,1.4-1.8,2.4-3.1,3.1c-1.3,0.7-2.7,1-4.2,1h-5.4V50.9z M64,66.5c1.8,0,3.2-0.5,4.4-1.5c1.2-1,1.8-2.6,1.8-4.9
			c0-2.3-0.6-3.9-1.8-4.9c-1.2-1-2.7-1.5-4.4-1.5h-1.8v12.8H64z"/>
		<path class="st0" d="M80.4,50.9h11v2.7h-8.1v4.5h6.5v2.7h-6.5v5.7h8.3v2.7H80.4V50.9z"/>
		<path class="st0" d="M99,50.9h3.1l7.4,13.1V50.9h2.9v18.2h-3.1l-7.4-13v13H99V50.9z"/>
		<path class="st0" d="M122.4,68.7c-0.9-0.5-1.6-1.1-2.1-1.8c-0.6-0.8-0.9-1.6-1.1-2.5l2.4-1.5c0.3,1.1,0.7,2.1,1.4,2.8
			c0.6,0.7,1.4,1.1,2.4,1.1c0.8,0,1.4-0.2,1.9-0.7c0.5-0.4,0.7-1.1,0.7-1.9c0-0.5-0.2-1-0.5-1.4c-0.3-0.4-0.7-0.7-1.2-1
			s-1.1-0.6-2-1.1l-0.5-0.2c-1.1-0.6-2-1.2-2.6-2c-0.7-0.8-1-1.8-1-3c0-0.9,0.2-1.7,0.6-2.4c0.4-0.7,1-1.3,1.7-1.7
			c0.7-0.4,1.6-0.6,2.5-0.6c2.4,0,4,1,4.9,3.1l-2.3,1.5c-0.5-1.3-1.4-2-2.6-2c-0.6,0-1.1,0.2-1.5,0.6c-0.4,0.4-0.6,0.8-0.6,1.3
			c0,0.5,0.2,1,0.5,1.4c0.3,0.4,0.7,0.7,1.2,1c0.5,0.3,1.1,0.6,2,1c1.3,0.6,2.3,1.3,3.1,2.1c0.7,0.8,1.1,1.9,1.1,3.2
			c0,1.1-0.2,2-0.7,2.8s-1.1,1.4-2,1.9c-0.9,0.4-1.8,0.7-2.9,0.7C124.2,69.4,123.3,69.1,122.4,68.7z"/>
		<path class="st0" d="M148.3,50.9h2.9v7.2h7.9v-7.2h2.9v18.2h-2.9v-8.4h-7.9v8.4h-2.9V50.9z"/>
		<path class="st0" d="M170.2,50.9h2.9v18.2h-2.9V50.9z"/>
		<path class="st0" d="M181.3,50.9h2.9v15.5h8v2.7h-10.8V50.9z"/>
		<path class="st0" d="M199.1,50.9h2.9v15.5h8v2.7h-10.8V50.9z"/>
		<path class="st0" d="M218.8,68.7c-0.9-0.5-1.6-1.1-2.1-1.8c-0.6-0.8-0.9-1.6-1.1-2.5l2.4-1.5c0.3,1.1,0.7,2.1,1.4,2.8
			c0.6,0.7,1.4,1.1,2.4,1.1c0.8,0,1.4-0.2,1.9-0.7c0.5-0.4,0.7-1.1,0.7-1.9c0-0.5-0.2-1-0.5-1.4c-0.3-0.4-0.7-0.7-1.2-1
			s-1.1-0.6-2-1.1l-0.5-0.2c-1.1-0.6-2-1.2-2.6-2c-0.7-0.8-1-1.8-1-3c0-0.9,0.2-1.7,0.6-2.4c0.4-0.7,1-1.3,1.7-1.7
			c0.7-0.4,1.6-0.6,2.5-0.6c2.4,0,4,1,4.9,3.1l-2.3,1.5c-0.5-1.3-1.4-2-2.6-2c-0.6,0-1.1,0.2-1.5,0.6c-0.4,0.4-0.6,0.8-0.6,1.3
			c0,0.5,0.2,1,0.5,1.4c0.3,0.4,0.7,0.7,1.2,1c0.5,0.3,1.1,0.6,2,1c1.3,0.6,2.3,1.3,3.1,2.1c0.7,0.8,1.1,1.9,1.1,3.2
			c0,1.1-0.2,2-0.7,2.8s-1.1,1.4-2,1.9c-0.9,0.4-1.8,0.7-2.9,0.7C220.6,69.4,219.6,69.1,218.8,68.7z"/>
	</g>
	<g>
		<path class="st0" d="M81.3,82.4h2l2.2,7.3l2.2-7.3h2l-3.3,9.8h-1.8L81.3,82.4z"/>
		<path class="st0" d="M96.6,82.4h1.8v9.8h-1.8V82.4z"/>
		<path class="st0" d="M106.3,82.4h1.8v8.1h4.2v1.7h-6V82.4z"/>
		<path class="st0" d="M119.5,82.4h1.8v8.1h4.2v1.7h-6V82.4z"/>
		<path class="st0" d="M135.1,82.4h1.8l3.3,9.8h-2l-0.7-2.3h-3.1l-0.7,2.3h-2L135.1,82.4z M137.1,88.2l-1-3.4l-1,3.4H137.1z"/>
		<path class="st0" d="M148.2,91.9c-0.5-0.2-0.9-0.6-1.2-1c-0.3-0.4-0.5-0.9-0.6-1.4l1.5-0.9c0.1,0.6,0.4,1.1,0.7,1.4
			c0.3,0.4,0.7,0.5,1.2,0.5c0.4,0,0.7-0.1,0.9-0.3c0.2-0.2,0.3-0.5,0.3-0.9c0-0.2-0.1-0.5-0.2-0.6c-0.2-0.2-0.4-0.3-0.6-0.5
			c-0.2-0.1-0.6-0.3-1-0.5l-0.4-0.2c-0.6-0.3-1-0.6-1.3-1.1c-0.3-0.4-0.5-1-0.5-1.6c0-0.5,0.1-0.9,0.3-1.3s0.6-0.7,1-0.9
			c0.4-0.2,0.9-0.3,1.4-0.3c1.4,0,2.3,0.6,2.8,1.8l-1.5,0.9c-0.2-0.7-0.7-1-1.3-1c-0.3,0-0.5,0.1-0.7,0.3c-0.2,0.2-0.3,0.4-0.3,0.6
			s0.1,0.5,0.3,0.7c0.2,0.2,0.4,0.4,0.6,0.5c0.2,0.1,0.6,0.3,1.1,0.5c0.5,0.2,0.8,0.4,1.2,0.7s0.6,0.5,0.8,0.9
			c0.2,0.4,0.3,0.8,0.3,1.3c0,0.6-0.1,1.1-0.4,1.5c-0.3,0.4-0.6,0.8-1.1,1c-0.5,0.2-1,0.4-1.6,0.4C149.2,92.3,148.7,92.1,148.2,91.9
			z"/>
	</g>
</g>
<g id="Layer_2">
</g>
</svg>
